/* XPM */
static char *camera_xpm[] = {
/* width height ncols cpp */
"16 16 8 2",
  /* Colors */
  "00 c #000000",
  "01 c #C0C0C0",
  "02 c #808080",
  "03 c #FF0000",
  "04 c #00FF00",
  "05 c #0000FF",
  "06 c #FFFFFF",
  ".. s None c None",
  "....000000......................",
  "....000606000000................",
  "....00010106060600..............",
  "..00000101010101000000..........",
  "000600020200000006060600........",
  "000600000001010101010100........",
  "000601010101010101010100....0000",
  "00060101010101010101010000000600",
  "00060602010602010602010006000100",
  "00060202010202010202010001000100",
  "00060101010101010101010002000100",
  "00060101010101010101010000000200",
  "000603030104040105050100....0000",
  "000603030104040105050100........",
  "000202020202020202020200........",
  "..00000000000000000000..........",
};
